<svg width="20" height="21" viewBox="0 0 20 21" fill="none" xmlns="http://www.w3.org/2000/svg">
<path d="M17.6086 8.53607C18.5749 9.5528 18.5749 11.0975 17.6086 12.1142C15.9788 13.829 13.1796 16.1585 10 16.1585C6.8204 16.1585 4.02124 13.829 2.39142 12.1142C1.42508 11.0975 1.42508 9.5528 2.39142 8.53607C4.02124 6.82127 6.8204 4.49182 10 4.49182C13.1796 4.49182 15.9788 6.82126 17.6086 8.53607Z" stroke="#373737" stroke-width="1.5"/>
<path d="M12.5 10.3252C12.5 11.7059 11.3807 12.8252 10 12.8252C8.61929 12.8252 7.5 11.7059 7.5 10.3252C7.5 8.94444 8.61929 7.82515 10 7.82515C11.3807 7.82515 12.5 8.94444 12.5 10.3252Z" stroke="#373737" stroke-width="1.5"/>
</svg>