<svg width="24" height="24" viewBox="0 0 24 24" fill="none" xmlns="http://www.w3.org/2000/svg">
<path fill-rule="evenodd" clip-rule="evenodd" d="M23.3681 12.2351C23.3681 11.4196 23.2949 10.6355 23.159 9.88281H12.3281V14.3312H18.5172C18.2506 15.7687 17.4404 16.9867 16.2224 17.8021V20.6876H19.939C22.1136 18.6855 23.3681 15.7374 23.3681 12.2351Z" fill="#4285F4"/>
<path fill-rule="evenodd" clip-rule="evenodd" d="M12.3276 23.4732C15.4326 23.4732 18.0358 22.4434 19.9385 20.6871L16.2219 17.8016C15.1921 18.4916 13.8749 18.8993 12.3276 18.8993C9.33237 18.8993 6.79714 16.8764 5.89283 14.1582H2.05078V17.1377C3.94305 20.8962 7.83215 23.4732 12.3276 23.4732Z" fill="#34A853"/>
<path fill-rule="evenodd" clip-rule="evenodd" d="M5.89335 14.1591C5.66335 13.4691 5.53267 12.7321 5.53267 11.9741C5.53267 11.2162 5.66335 10.4791 5.89335 9.78912V6.80957H2.05131C1.27244 8.36207 0.828125 10.1184 0.828125 11.9741C0.828125 13.8298 1.27244 15.5862 2.05131 17.1387L5.89335 14.1591Z" fill="#FBBC05"/>
<path fill-rule="evenodd" clip-rule="evenodd" d="M12.3276 5.0475C14.016 5.0475 15.5319 5.62772 16.7237 6.76727L20.0221 3.46886C18.0306 1.61318 15.4274 0.473633 12.3276 0.473633C7.83215 0.473633 3.94305 3.05068 2.05078 6.80909L5.89283 9.78863C6.79715 7.07045 9.33237 5.0475 12.3276 5.0475Z" fill="#EA4335"/>
</svg>