<svg width="20" height="21" viewBox="0 0 20 21" fill="none" xmlns="http://www.w3.org/2000/svg">
<path d="M7.07101 13.7542L2.5 18.3252M13.1907 13.6386L14.5975 12.2318C14.916 11.9133 15.348 11.7344 15.7984 11.7344C17.3113 11.7344 18.069 9.90516 16.9992 8.83534L11.9898 3.826C10.92 2.75618 9.09078 3.51387 9.09078 5.02683C9.09078 5.47722 8.91186 5.90917 8.59338 6.22765L7.18652 7.63451C6.86804 7.95299 6.43609 8.13191 5.98569 8.13191C4.47273 8.13191 3.71504 9.96114 4.78486 11.031L9.79421 16.0403C10.864 17.1101 12.6933 16.3524 12.6933 14.8395C12.6933 14.3891 12.8722 13.9571 13.1907 13.6386Z" stroke="#373737" stroke-width="1.5" stroke-linecap="round"/>
</svg>